<?xml version="1.0" encoding="UTF-8" standalone="no"?> <svg width="64" height="64" viewBox="0 0 64 64" fill="none" xmlns="http://www.w3.org/2000/svg">
<path d="M58.72 18.1999C58.706 17.8629 58.607 17.5348 58.4321 17.2463C58.2573 16.9579 58.0123 16.7183 57.72 16.5499L33 2.2699C32.696 2.09437 32.3511 2.00195 32 2.00195C31.6489 2.00195 31.3041 2.09437 31 2.2699C30.94 2.2699 6.25002 16.5299 6.20002 16.5999C5.91651 16.7794 5.68273 17.0274 5.52021 17.321C5.35769 17.6146 5.27165 17.9443 5.27002 18.2799V45.7199C5.27038 46.0706 5.36296 46.4151 5.53848 46.7187C5.714 47.0224 5.96628 47.2745 6.27002 47.4499L31 61.7299C31.3059 61.8998 31.6501 61.9889 32 61.9889C32.3499 61.9889 32.6941 61.8998 33 61.7299L57.73 47.4499C58.0338 47.2745 58.286 47.0224 58.4616 46.7187C58.6371 46.4151 58.7297 46.0706 58.73 45.7199C58.72 45.6399 58.75 18.2699 58.72 18.1999ZM32 6.3099L52.73 18.3099L45.42 22.4999L24.69 10.4999L32 6.3099ZM32 30.2499L11.27 18.2499L20.7 12.8099L41.42 24.8099L32 30.2499ZM54.73 44.5699L34 56.5399V33.7099L43.42 28.2699V35.6999C43.42 36.2303 43.6307 36.739 44.0058 37.1141C44.3809 37.4892 44.8896 37.6999 45.42 37.6999C45.9505 37.6999 46.4592 37.4892 46.8342 37.1141C47.2093 36.739 47.42 36.2303 47.42 35.6999V25.9999L54.73 21.7799V44.5699Z" fill="black"/>
</svg>
